<svg id="icon-icon-pulldown" viewBox="0 0 32 32">
    <path fill="currentColor"
        d="M17.624 23.704c-0.187 0.19-0.442 0.296-0.707 0.296h-0.507c-0.265-0.003-0.518-0.109-0.707-0.296l-6.84-6.925c-0.126-0.126-0.197-0.299-0.197-0.478s0.071-0.352 0.197-0.478l0.947-0.957c0.123-0.127 0.291-0.198 0.467-0.198s0.344 0.071 0.467 0.198l5.92 5.995 5.92-5.995c0.125-0.128 0.296-0.199 0.473-0.199s0.348 0.072 0.473 0.199l0.933 0.957c0.126 0.126 0.197 0.299 0.197 0.478s-0.071 0.352-0.197 0.478l-6.84 6.925z">
    </path>
    <path fill="currentColor"
        d="M17.624 17.037c-0.187 0.19-0.442 0.296-0.707 0.296h-0.507c-0.265-0.003-0.518-0.109-0.707-0.296l-6.84-6.925c-0.126-0.126-0.197-0.299-0.197-0.478s0.071-0.352 0.197-0.478l0.947-0.957c0.123-0.127 0.291-0.198 0.467-0.198s0.344 0.071 0.467 0.198l5.92 5.995 5.92-5.995c0.125-0.128 0.296-0.199 0.473-0.199s0.348 0.072 0.473 0.199l0.933 0.957c0.126 0.126 0.197 0.299 0.197 0.478s-0.071 0.352-0.197 0.478l-6.84 6.925z">
    </path>
</svg>